<?xml version="1.0" standalone="no"?>
<!DOCTYPE svg PUBLIC "-//W3C//DTD SVG 20010904//EN"
 "http://www.w3.org/TR/2001/REC-SVG-20010904/DTD/svg10.dtd">
<svg version="1.0" xmlns="http://www.w3.org/2000/svg"
 width="32.000000pt" height="32.000000pt" viewBox="0 0 32.000000 32.000000"
 preserveAspectRatio="xMidYMid meet">

<g transform="translate(0.000000,32.000000) scale(0.100000,-0.100000)"
fill="#000000" stroke="none">
<path d="M65 249 c-61 -54 -84 -128 -50 -163 8 -8 15 -22 15 -30 0 -9 4 -16 9
-16 11 0 106 74 116 90 3 6 32 23 63 39 59 30 111 76 99 88 -4 3 -25 -1 -47
-10 -40 -15 -42 -15 -77 9 -49 33 -84 31 -128 -7z m121 0 c33 -20 33 -21 18
-47 l-16 -27 19 22 c19 21 92 57 100 50 4 -5 -53 -49 -85 -66 -20 -11 -27 -10
-45 7 -12 10 -29 22 -37 27 -8 4 -2 -4 13 -17 l29 -24 -42 -42 c-23 -23 -47
-39 -53 -35 -5 3 -7 1 -4 -4 4 -6 -5 -19 -20 -28 -23 -15 -25 -16 -20 -1 4 10
-1 20 -13 26 -14 7 -20 21 -20 43 0 30 18 75 21 52 0 -5 4 1 8 15 6 20 14 25
38 25 17 0 29 3 26 7 -2 5 -12 8 -21 8 -13 0 -13 2 4 15 27 20 61 18 100 -6z"/>
<path d="M41 165 c0 -5 6 -21 14 -35 8 -14 14 -20 14 -15 0 6 -6 21 -14 35 -8
14 -14 21 -14 15z"/>
</g>
</svg>
