<?xml version="1.0" standalone="no"?>
<!DOCTYPE svg PUBLIC "-//W3C//DTD SVG 20010904//EN"
 "http://www.w3.org/TR/2001/REC-SVG-20010904/DTD/svg10.dtd">
<svg version="1.0" xmlns="http://www.w3.org/2000/svg"
 width="32.000000pt" height="32.000000pt" viewBox="0 0 32.000000 32.000000"
 preserveAspectRatio="xMidYMid meet">

<g transform="translate(0.000000,32.000000) scale(0.100000,-0.100000)"
fill="#000000" stroke="none">
<path d="M120 280 c0 -19 -7 -33 -20 -40 -22 -12 -27 -1 -7 19 8 9 2 8 -19 -2
-67 -34 -81 -130 -30 -208 l26 -39 90 0 c83 0 90 1 90 20 0 17 -7 20 -40 20
l-40 0 0 95 c0 101 5 109 51 85 16 -9 19 -22 19 -93 0 -53 4 -77 9 -68 7 11
10 5 13 -20 2 -26 8 -35 26 -37 21 -3 22 -1 22 78 0 101 -17 143 -71 171 -22
11 -39 26 -39 34 0 11 -11 15 -40 15 -38 0 -40 -2 -40 -30z m52 8 c-9 -9 -15
-9 -24 0 -9 9 -7 12 12 12 19 0 21 -3 12 -12z m-22 -29 c0 -6 -4 -7 -10 -4 -5
3 -10 11 -10 16 0 6 5 7 10 4 6 -3 10 -11 10 -16z m32 -1 c-7 -7 -12 -8 -12
-2 0 6 3 14 7 17 3 4 9 5 12 2 2 -3 -1 -11 -7 -17z m58 -19 c0 -6 -7 -6 -20 1
-11 6 -20 15 -20 21 0 6 7 6 20 -1 11 -6 20 -15 20 -21z m-170 -46 c0 -37 -3
-44 -11 -33 -12 18 -4 -17 16 -66 10 -23 10 -35 2 -43 -8 -8 -8 -11 2 -11 7 0
9 -5 6 -11 -12 -18 -57 61 -62 105 -3 29 2 50 16 74 12 17 23 32 26 32 3 0 5
-21 5 -47z m80 -48 c0 -95 0 -95 -25 -95 -28 0 -31 10 -13 43 10 19 9 20 -4
10 -22 -19 -28 -6 -28 58 0 60 12 78 53 79 15 0 17 -11 17 -95z m119 59 c-12
-14 4 -54 21 -54 6 0 10 -22 10 -50 0 -36 -4 -50 -14 -50 -17 0 -24 26 -33
120 -6 69 -5 74 10 61 13 -10 14 -17 6 -27z m26 -42 c-8 -9 -25 20 -18 31 3 5
10 2 15 -7 6 -10 7 -20 3 -24z m-145 -132 c0 -5 -12 -10 -26 -10 -14 0 -23 4
-19 10 3 6 15 10 26 10 10 0 19 -4 19 -10z m90 0 c0 -5 -16 -10 -35 -10 -19 0
-35 5 -35 10 0 6 16 10 35 10 19 0 35 -4 35 -10z m60 0 c0 -5 -7 -10 -15 -10
-8 0 -15 5 -15 10 0 6 7 10 15 10 8 0 15 -4 15 -10z"/>
<path d="M200 101 c0 -5 7 -15 17 -22 15 -13 15 -12 4 9 -12 23 -21 28 -21 13z"/>
</g>
</svg>
