<?xml version="1.0" standalone="no"?>
<!DOCTYPE svg PUBLIC "-//W3C//DTD SVG 20010904//EN"
 "http://www.w3.org/TR/2001/REC-SVG-20010904/DTD/svg10.dtd">
<svg version="1.0" xmlns="http://www.w3.org/2000/svg"
 width="32.000000pt" height="32.000000pt" viewBox="0 0 32.000000 32.000000"
 preserveAspectRatio="xMidYMid meet">

<g transform="translate(0.000000,32.000000) scale(0.100000,-0.100000)"
fill="#000000" stroke="none">
<path d="M73 305 c-34 -15 -47 -33 -58 -82 -6 -29 -4 -33 19 -39 25 -6 26 -8
26 -95 l0 -89 100 0 100 0 -2 63 c-1 56 -2 57 -5 15 l-4 -48 -67 -2 -67 -2 70
-6 70 -6 -95 -1 c-61 -1 -86 2 -70 7 23 7 23 8 3 9 -21 1 -22 6 -25 114 -2 61
-7 119 -11 128 -6 13 -1 19 22 27 25 9 31 8 31 -3 0 -8 11 -22 24 -30 27 -18
57 -9 74 22 14 23 67 9 56 -15 -4 -9 -9 -44 -10 -77 -1 -33 0 -50 2 -38 3 12
16 24 30 27 23 6 25 10 19 39 -11 50 -24 68 -60 83 -43 18 -130 17 -172 -1z
m127 1 c0 -22 -17 -36 -41 -36 -16 0 -29 2 -29 4 0 2 -3 11 -6 20 -5 13 2 16
35 16 23 0 41 -2 41 -4z m-140 -78 c0 -10 -5 -18 -10 -18 -15 0 -23 27 -16 47
6 15 8 15 16 3 6 -8 10 -23 10 -32z m230 12 c0 -19 -17 -36 -27 -26 -3 3 -2
17 1 31 7 28 26 25 26 -5z m-240 -40 c8 -5 11 -10 5 -10 -5 0 -17 5 -25 10 -8
5 -10 10 -5 10 6 0 17 -5 25 -10z m240 0 c-8 -5 -19 -10 -25 -10 -5 0 -3 5 5
10 8 5 20 10 25 10 6 0 3 -5 -5 -10z"/>
</g>
</svg>
