<?xml version="1.0" standalone="no"?>
<!DOCTYPE svg PUBLIC "-//W3C//DTD SVG 20010904//EN"
 "http://www.w3.org/TR/2001/REC-SVG-20010904/DTD/svg10.dtd">
<svg version="1.0" xmlns="http://www.w3.org/2000/svg"
 width="32.000000pt" height="32.000000pt" viewBox="0 0 32.000000 32.000000"
 preserveAspectRatio="xMidYMid meet">

<g transform="translate(0.000000,32.000000) scale(0.100000,-0.100000)"
fill="#000000" stroke="none">
<path d="M60 251 c-39 -7 -47 -25 -49 -107 -1 -63 1 -64 122 -63 94 1 168 16
174 35 6 17 -25 44 -48 44 -42 0 -117 41 -129 71 -7 16 -18 28 -24 28 -6 -1
-27 -4 -46 -8z m28 -17 c19 -5 20 -9 10 -22 -12 -14 -10 -14 11 -3 13 7 21 9
17 3 -3 -5 8 -15 24 -22 17 -7 30 -16 30 -21 0 -16 -29 -10 -49 10 -12 12 -30
18 -47 16 -46 -5 -56 5 -45 43 2 4 25 2 49 -4z m50 -72 c41 -21 36 -36 -12
-40 -30 -3 -39 0 -43 16 -2 10 -19 26 -36 35 l-32 16 45 -5 c25 -3 60 -13 78
-22z m-87 -2 c27 -15 24 -30 -6 -30 -18 0 -25 5 -25 20 0 23 4 24 31 10z m162
-3 c7 3 3 -3 -7 -15 -26 -30 -38 -28 -24 4 7 15 14 21 16 15 2 -6 9 -8 15 -4z
m76 -23 c1 -1 -13 -6 -33 -10 -21 -3 -40 -4 -43 0 -4 3 5 6 18 6 19 0 21 2 9
10 -11 8 -7 9 15 4 17 -4 32 -8 34 -10z m-17 -29 c-23 -13 -244 -13 -249 0 -2
7 44 10 131 10 94 0 129 -3 118 -10z"/>
<path d="M48 223 c6 -2 18 -2 25 0 6 3 1 5 -13 5 -14 0 -19 -2 -12 -5z"/>
</g>
</svg>
